<svg width="17" height="17" viewBox="0 0 17 17" fill="none" xmlns="http://www.w3.org/2000/svg">
<path d="M12.394 6.49852C12.6692 6.18893 12.6413 5.71488 12.3317 5.43969C12.0221 5.1645 11.548 5.19238 11.2729 5.50197L12.394 6.49852ZM7.38897 11.0002L6.82841 11.4985C6.97074 11.6586 7.17474 11.7502 7.38897 11.7502C7.6032 11.7502 7.8072 11.6586 7.94953 11.4985L7.38897 11.0002ZM5.72731 8.00197C5.45212 7.69238 4.97806 7.6645 4.66848 7.93969C4.35889 8.21488 4.331 8.68893 4.60619 8.99852L5.72731 8.00197ZM11.2729 5.50197L6.82841 10.502L7.94953 11.4985L12.394 6.49852L11.2729 5.50197ZM7.94953 10.502L5.72731 8.00197L4.60619 8.99852L6.82841 11.4985L7.94953 10.502Z" fill="#96CF6F"/>
<path d="M15.1667 1H1.83333C1.3731 1 1 1.3731 1 1.83333V15.1667C1 15.6269 1.3731 16 1.83333 16H15.1667C15.6269 16 16 15.6269 16 15.1667V1.83333C16 1.3731 15.6269 1 15.1667 1Z" stroke="#96CF6F" stroke-width="1.5" stroke-linecap="round" stroke-linejoin="round"/>
</svg>
